<?xml version="1.0" encoding="utf-8"?>
<!-- Generator: Adobe Illustrator 26.0.1, SVG Export Plug-In . SVG Version: 6.00 Build 0)  -->
<svg version="1.1" id="Layer_1" xmlns="http://www.w3.org/2000/svg" xmlns:xlink="http://www.w3.org/1999/xlink" x="0px" y="0px"
	 viewBox="0 0 24 25" style="enable-background:new 0 0 24 25;" xml:space="preserve">
<g>
	<path d="M11,21.3c-5.7,0-10.4-4.7-10.4-10.4S5.3,0.6,11,0.6c5.7,0,10.4,4.7,10.4,10.4S16.7,21.3,11,21.3z M11,2.2 c-4.8,0-8.8,3.9-8.8,8.8c0,4.8,3.9,8.8,8.8,8.8c4.8,0,8.8-3.9,8.8-8.8C19.8,6.1,15.9,2.2,11,2.2z"/>
</g>
<g>
	<rect x="19.2" y="17.3" transform="matrix(0.7071 -0.7071 0.7071 0.7071 -9.0311 20.2863)" width="1.6" height="7.4"/>
</g>
</svg>
